/vscmnt/brussel_pixiu_data/_data_brussel/112/vsc11236/PredSimResults/SUBJ04mtu3D/worker3.mot
version=1
nRows=4
nColumns=50
inDegrees=yes
endheader
                time	         pelvis_tilt	         pelvis_list	     pelvis_rotation	           pelvis_tx	           pelvis_ty	           pelvis_tz	       hip_flexion_r	     hip_adduction_r	      hip_rotation_r	        knee_angle_r	       ankle_angle_r	         mtp_angle_r	       hip_flexion_l	     hip_adduction_l	      hip_rotation_l	        knee_angle_l	       ankle_angle_l	         mtp_angle_l	    lumbar_extension	      lumbar_bending	     lumbar_rotation	 ercspn_r/activation	 intobl_r/activation	 extobl_r/activation	    abd_r/activation	    add_r/activation	hamstrings_r/activation	bifemsh_r/activation	glut_max_r/activation	iliopsoas_r/activation	rect_fem_r/activation	  vasti_r/activation	gastroc_r/activation	 soleus_r/activation	tib_ant_r/activation	 ercspn_l/activation	 intobl_l/activation	 extobl_l/activation	    abd_l/activation	    add_l/activation	hamstrings_l/activation	bifemsh_l/activation	glut_max_l/activation	iliopsoas_l/activation	rect_fem_l/activation	  vasti_l/activation	gastroc_l/activation	 soleus_l/activation	tib_ant_l/activation	
          0.70480203	         -4.61654098	          1.71830578	        -10.41983362	          0.66251391	          0.87920001	          0.01042916	         -9.03383120	         -3.60094111	         -1.16257354	        -13.32782096	         10.61872225	         28.76586174	         26.22591808	         -1.77370621	         -7.26906878	         -0.70305888	          5.61690431	          0.24149058	        -11.36725500	          1.89109016	          4.24080593	          0.00999999	          0.00999999	          0.01000000	          0.02976094	          0.00999999	          0.01615291	          0.13846467	          0.01726858	          0.01000000	          0.01000000	          0.00999999	          0.28291951	          0.29267705	          0.01209425	          0.02325173	          0.22169594	          0.06977034	          0.00999999	          0.21609690	          0.04796310	          0.11929401	          0.03057826	          0.07841990	          0.01860117	          0.00999999	          0.02192669	          0.01348453	          0.12725758	
          0.71889807	         -4.64548400	          1.73467132	        -10.17525133	          0.67971449	          0.87708352	          0.00913289	         -9.68113237	         -3.84028276	         -1.85524279	        -14.21081310	         10.00147697	         30.30290568	         25.99885457	         -1.48618107	         -7.16196236	         -2.06455791	          5.06371300	          0.22951728	        -10.90565798	          1.36083072	          4.15025273	          0.02945800	          0.00999999	          0.01000002	          0.02409921	          0.01000003	          0.01685881	          0.11212315	          0.01398341	          0.03173793	          0.01000000	          0.00999999	          0.26129615	          0.27680967	          0.00999999	          0.01882832	          0.19071795	          0.05649722	          0.03934754	          0.17498660	          0.05429043	          0.09659952	          0.06417657	          0.06350129	          0.01506249	          0.00999999	          0.01775535	          0.01091923	          0.17474133	
          0.73299411	         -4.66338047	          1.79242689	         -9.87425796	          0.69713983	          0.87543140	          0.00774588	        -10.12486761	         -4.12573045	         -2.57942807	        -15.47973392	          9.17951210	         31.89244476	         25.64414101	         -1.14166220	         -7.07982016	         -3.18412148	          4.38672818	          0.20863201	        -10.42547317	          0.76335598	          4.04212685	          0.04855820	          0.00999999	          0.01000000	          0.01951457	          0.00999999	          0.01453265	          0.09079284	          0.01132320	          0.03417013	          0.01000001	          0.00999999	          0.23513526	          0.25593572	          0.00999999	          0.01883346	          0.15443574	          0.04574918	          0.07055278	          0.14169713	          0.05058580	          0.07822242	          0.09167372	          0.05142080	          0.01219703	          0.01795811	          0.01437757	          0.01000000	          0.20634665	
          0.74709015	         -4.67281433	          1.87122485	         -9.52054787	          0.71452104	          0.87448214	          0.00626547	        -10.28258300	         -4.44139167	         -3.33201790	        -17.23364257	          8.10443913	         33.46417271	         25.23851035	         -0.76563854	         -7.05582528	         -4.22923012	          3.78462421	          0.18730235	         -9.95981567	          0.12720877	          3.91386031	          0.06450013	          0.00999999	          0.01000000	          0.01580212	          0.01000000	          0.01568343	          0.07352040	          0.00999999	          0.02766961	          0.01000000	          0.01000000	          0.19040311	          0.23073705	          0.00999999	          0.01525060	          0.12505587	          0.03704585	          0.10495160	          0.13118549	          0.05649842	          0.06334138	          0.08264337	          0.04163850	          0.01000003	          0.04656257	          0.01164239	          0.00999999	          0.23145320	
